<?xml version="1.0" encoding="UTF-8"?>
<svg xmlns="http://www.w3.org/2000/svg" role="img" aria-labelledby="title desc" viewBox="0 0 1200 630" width="1200" height="630">
  <title id="title">PoE2 初心者おすすめビルド</title><desc id="desc">POE2ビルドナビが既存の確認済みデータから作成した独自図解です。</desc>
  <defs><linearGradient id="bg" x1="0" y1="0" x2="1" y2="1"><stop stop-color="#101827"/><stop offset="1" stop-color="#242037"/></linearGradient><filter id="shadow"><feDropShadow dx="0" dy="8" stdDeviation="12" flood-opacity=".24"/></filter></defs>
  <rect width="1200" height="630" rx="34" fill="url(#bg)"/><circle cx="1090" cy="105" r="210" fill="#cc9b4b" opacity=".09"/><circle cx="90" cy="600" r="180" fill="#6e8fa8" opacity=".11"/>
  <text x="64" y="74" fill="#d4a95d" font-family="sans-serif" font-size="22" font-weight="700" letter-spacing="3">QUICK GUIDE</text><text x="64" y="132" fill="#f8fafc" font-family="sans-serif" font-size="43" font-weight="800">PoE2 初心者おすすめビルド</text><text x="64" y="174" fill="#c9d4df" font-family="sans-serif" font-size="24">遊び方から最初の1体を選ぶ早見図</text><g filter="url(#shadow)"><rect x="64" y="220" width="512" height="130" rx="22" fill="#182436" stroke="#31455d"/><rect x="64" y="220" width="8" height="130" rx="4" fill="#79b7dd"/><text x="92" y="257" fill="#79b7dd" font-family="sans-serif" font-size="18" font-weight="700">遠距離</text><text x="92" y="298" fill="#fff" font-family="sans-serif" font-size="27" font-weight="700">アイスショット・デッドアイ</text><text x="92" y="332" fill="#b9c7d6" font-family="sans-serif" font-size="19">Lv31で主力へ切替</text></g><g filter="url(#shadow)"><rect x="624" y="220" width="512" height="130" rx="22" fill="#182436" stroke="#31455d"/><rect x="624" y="220" width="8" height="130" rx="4" fill="#9fb6c8"/><text x="652" y="257" fill="#9fb6c8" font-family="sans-serif" font-size="18" font-weight="700">耐久</text><text x="652" y="298" fill="#fff" font-family="sans-serif" font-size="27" font-weight="700">シールドウォール・スミス</text><text x="652" y="332" fill="#b9c7d6" font-family="sans-serif" font-size="19">盾を軸に育成</text></g><g filter="url(#shadow)"><rect x="64" y="385" width="512" height="130" rx="22" fill="#182436" stroke="#31455d"/><rect x="64" y="385" width="8" height="130" rx="4" fill="#b28adb"/><text x="92" y="422" fill="#b28adb" font-family="sans-serif" font-size="18" font-weight="700">ミニオン</text><text x="92" y="463" fill="#fff" font-family="sans-serif" font-size="27" font-weight="700">スナイパーミニオン・インファーナリスト</text><text x="92" y="497" fill="#b9c7d6" font-family="sans-serif" font-size="19">位置取りへ集中</text></g><g filter="url(#shadow)"><rect x="624" y="385" width="512" height="130" rx="22" fill="#182436" stroke="#31455d"/><rect x="624" y="385" width="8" height="130" rx="4" fill="#85c7a3"/><text x="652" y="422" fill="#85c7a3" font-family="sans-serif" font-size="18" font-weight="700">継続ダメージ</text><text x="652" y="463" fill="#fff" font-family="sans-serif" font-size="27" font-weight="700">ED・コンテージョン リッチ</text><text x="652" y="497" fill="#b9c7d6" font-family="sans-serif" font-size="19">序盤から段階別に育成</text></g>
  <text x="64" y="596" fill="#9fb0c3" font-family="sans-serif" font-size="20">POE2ビルドナビ独自図解 ・ Patch 0.5.5</text>
</svg>